<mxfile host="app.diagrams.net" modified="2024-04-26T13:31:27.704Z" agent="Mozilla/5.0 (Windows NT 10.0; Win64; x64) AppleWebKit/537.36 (KHTML, like Gecko) Chrome/124.0.0.0 Safari/537.36 Edg/124.0.0.0" etag="PhA_ifPpP82UfrJ_W933" version="24.3.0" type="github">
  <diagram name="第 1 页" id="T80WdDOxKRqRGovHAkZ1">
    <mxGraphModel dx="268" dy="152" grid="1" gridSize="10" guides="1" tooltips="1" connect="1" arrows="1" fold="1" page="1" pageScale="1" pageWidth="827" pageHeight="1169" math="0" shadow="0">
      <root>
        <mxCell id="0" />
        <mxCell id="1" parent="0" />
        <mxCell id="-lEpSaMHGUQRzKjocnxs-1" value="&lt;p style=&quot;line-height: 100%; font-size: 10px;&quot;&gt;&lt;font style=&quot;font-size: 10px;&quot;&gt;1&lt;/font&gt;&lt;/p&gt;" style="whiteSpace=wrap;html=1;fillColor=#A9C4EB;fontSize=10;" vertex="1" parent="1">
          <mxGeometry x="80" y="240" width="40" height="10" as="geometry" />
        </mxCell>
        <mxCell id="-lEpSaMHGUQRzKjocnxs-3" value="&lt;p style=&quot;line-height: 100%; font-size: 10px;&quot;&gt;&lt;font style=&quot;font-size: 10px;&quot;&gt;2&lt;/font&gt;&lt;/p&gt;" style="whiteSpace=wrap;html=1;fillColor=#A9C4EB;fontSize=10;" vertex="1" parent="1">
          <mxGeometry x="120" y="240" width="42" height="10" as="geometry" />
        </mxCell>
        <mxCell id="-lEpSaMHGUQRzKjocnxs-5" value="&lt;p style=&quot;line-height: 100%; font-size: 10px;&quot;&gt;&lt;font style=&quot;font-size: 10px;&quot;&gt;3&lt;/font&gt;&lt;/p&gt;" style="whiteSpace=wrap;html=1;fillColor=#A9C4EB;fontSize=10;" vertex="1" parent="1">
          <mxGeometry x="162" y="240" width="42" height="10" as="geometry" />
        </mxCell>
        <mxCell id="-lEpSaMHGUQRzKjocnxs-7" value="1" style="whiteSpace=wrap;html=1;fillColor=#C3ABD0;fontSize=10;" vertex="1" parent="1">
          <mxGeometry x="120" y="260" width="60" height="10" as="geometry" />
        </mxCell>
        <mxCell id="-lEpSaMHGUQRzKjocnxs-8" value="" style="verticalLabelPosition=bottom;verticalAlign=top;html=1;shape=mxgraph.basic.flash;fillColor=#FF0000;strokeColor=none;" vertex="1" parent="1">
          <mxGeometry x="222" y="233" width="4" height="10" as="geometry" />
        </mxCell>
        <mxCell id="-lEpSaMHGUQRzKjocnxs-9" value="&lt;font style=&quot;font-size: 10px;&quot; face=&quot;Times New Roman&quot;&gt;Interruption&lt;/font&gt;" style="text;html=1;align=center;verticalAlign=middle;whiteSpace=wrap;rounded=0;" vertex="1" parent="1">
          <mxGeometry x="194" y="223" width="60" height="10" as="geometry" />
        </mxCell>
        <mxCell id="-lEpSaMHGUQRzKjocnxs-11" value="&lt;p style=&quot;line-height: 100%; font-size: 10px;&quot;&gt;&lt;font style=&quot;font-size: 10px;&quot;&gt;4&lt;/font&gt;&lt;/p&gt;" style="whiteSpace=wrap;html=1;fillColor=#A9C4EB;fontSize=10;" vertex="1" parent="1">
          <mxGeometry x="204" y="240" width="16" height="10" as="geometry" />
        </mxCell>
        <mxCell id="-lEpSaMHGUQRzKjocnxs-12" value="&lt;p style=&quot;line-height: 100%;&quot;&gt;1&lt;/p&gt;" style="whiteSpace=wrap;html=1;fillColor=#A9C4EB;fontSize=10;verticalAlign=middle;" vertex="1" parent="1">
          <mxGeometry x="227" y="240" width="42" height="10" as="geometry" />
        </mxCell>
        <mxCell id="-lEpSaMHGUQRzKjocnxs-13" value="&lt;p style=&quot;line-height: 100%; font-size: 10px;&quot;&gt;2&lt;/p&gt;" style="whiteSpace=wrap;html=1;fillColor=#A9C4EB;fontSize=10;" vertex="1" parent="1">
          <mxGeometry x="269" y="240" width="42" height="10" as="geometry" />
        </mxCell>
        <mxCell id="-lEpSaMHGUQRzKjocnxs-14" value="3" style="whiteSpace=wrap;html=1;fillColor=#C3ABD0;fontSize=10;" vertex="1" parent="1">
          <mxGeometry x="204" y="260" width="16" height="10" as="geometry" />
        </mxCell>
        <mxCell id="-lEpSaMHGUQRzKjocnxs-16" value="1" style="whiteSpace=wrap;html=1;fillColor=#C3ABD0;fontSize=10;" vertex="1" parent="1">
          <mxGeometry x="269" y="260" width="60" height="10" as="geometry" />
        </mxCell>
        <mxCell id="-lEpSaMHGUQRzKjocnxs-17" value="" style="whiteSpace=wrap;html=1;aspect=fixed;fillColor=#A9C4EB;" vertex="1" parent="1">
          <mxGeometry x="360" y="240" width="10" height="10" as="geometry" />
        </mxCell>
        <mxCell id="-lEpSaMHGUQRzKjocnxs-18" value="&lt;font style=&quot;font-size: 10px;&quot;&gt;Compute&lt;/font&gt;" style="text;html=1;align=center;verticalAlign=middle;whiteSpace=wrap;rounded=0;" vertex="1" parent="1">
          <mxGeometry x="370" y="240" width="50" height="10" as="geometry" />
        </mxCell>
        <mxCell id="-lEpSaMHGUQRzKjocnxs-19" value="" style="whiteSpace=wrap;html=1;aspect=fixed;fillColor=#C3ABD0;" vertex="1" parent="1">
          <mxGeometry x="360" y="260" width="10" height="10" as="geometry" />
        </mxCell>
        <mxCell id="-lEpSaMHGUQRzKjocnxs-20" value="&lt;font style=&quot;font-size: 10px;&quot;&gt;Checkpoint&lt;/font&gt;" style="text;html=1;align=center;verticalAlign=middle;whiteSpace=wrap;rounded=0;" vertex="1" parent="1">
          <mxGeometry x="375" y="260" width="50" height="10" as="geometry" />
        </mxCell>
        <mxCell id="-lEpSaMHGUQRzKjocnxs-21" value="" style="endArrow=block;startArrow=block;html=1;rounded=0;endSize=3;startSize=3;startFill=1;endFill=1;" edge="1" parent="1">
          <mxGeometry width="50" height="50" relative="1" as="geometry">
            <mxPoint x="80" y="280" as="sourcePoint" />
            <mxPoint x="227" y="280" as="targetPoint" />
          </mxGeometry>
        </mxCell>
        <mxCell id="-lEpSaMHGUQRzKjocnxs-22" value="" style="endArrow=none;html=1;rounded=0;" edge="1" parent="1">
          <mxGeometry width="50" height="50" relative="1" as="geometry">
            <mxPoint x="80" y="285" as="sourcePoint" />
            <mxPoint x="80" y="275" as="targetPoint" />
            <Array as="points" />
          </mxGeometry>
        </mxCell>
        <mxCell id="-lEpSaMHGUQRzKjocnxs-23" value="" style="endArrow=none;html=1;rounded=0;" edge="1" parent="1">
          <mxGeometry width="50" height="50" relative="1" as="geometry">
            <mxPoint x="227" y="285" as="sourcePoint" />
            <mxPoint x="227" y="275" as="targetPoint" />
            <Array as="points" />
          </mxGeometry>
        </mxCell>
        <mxCell id="-lEpSaMHGUQRzKjocnxs-24" value="&lt;font style=&quot;font-size: 10px;&quot; face=&quot;Times New Roman&quot;&gt;Recovery Time&lt;/font&gt;" style="text;html=1;align=center;verticalAlign=middle;whiteSpace=wrap;rounded=0;" vertex="1" parent="1">
          <mxGeometry x="121" y="280" width="74" height="10" as="geometry" />
        </mxCell>
      </root>
    </mxGraphModel>
  </diagram>
</mxfile>
